#!OML:ASF H:\Terrain\Patient Classification 1\Walking\liu\liu.ASF
:FULLY-SPECIFIED
:DEGREES
48
root 8.53671 15.495 -24.9139 8.68496 -6.86436 0.255919
lowerback -3.50148 3.10237 -3.8514
upperback -1.35614 4.25669 0.852749
thorax 0.218887 2.14812 3.17153
lowerneck -18.5166 -5.76908 -14.0267
upperneck 15.2597 -7.44511 16.717
head 9.04544 -2.71232 7.15392
rclavicle -4.88513e-014 -6.16232e-015
rhumerus -36.6019 18.0221 -87.4187
rradius 50.6676
rwrist -31.143
rhand -33.6958 -30.5292
rfingers 7.12502
rthumb -6.8859 -60.3972
lclavicle -4.88513e-014 -6.16232e-015
lhumerus -53.8351 6.38022 77.133
lradius 19.2144
lwrist -7.91377
lhand -6.74228 -23.407
lfingers 7.12502
lthumb 19.1187 5.67326
rfemur 11.527 0.489316 15.6678
rtibia 37.4708
rfoot 11.6043 -3.67354
rtoes -13.9014
lfemur -47.2452 9.86174 -24.4595
ltibia 45.7713
lfoot -7.25483 5.00983
ltoes -5.22891
49
root 8.57169 15.5328 -24.7028 8.5276 -6.77909 0.855502
lowerback -3.28939 2.88501 -4.35136
upperback -1.42252 3.9731 0.705252
thorax 0.0314296 2.01315 3.27655
lowerneck -18.1054 -5.5203 -13.8197
upperneck 15.0631 -7.1429 16.5476
head 8.83512 -2.59375 7.09203
rclavicle -4.14218e-014 4.77083e-015
rhumerus -36.6299 17.6621 -87.808
rradius 49.1033
rwrist -30.48
rhand -33.5625 -29.6942
rfingers 7.12502
rthumb -6.75724 -59.5664
lclavicle -4.14218e-014 4.77083e-015
lhumerus -53.4609 6.05417 77.7051
lradius 19.6377
lwrist -6.88096
lhand -7.40848 -23.3883
lfingers 7.12502
lthumb 18.4779 5.75412
rfemur 9.67588 0.0530813 14.9167
rtibia 41.4174
rfoot 12.9486 -5.60451
rtoes -11.5764
lfemur -46.0582 9.5308 -25.1266
ltibia 45.4353
lfoot -8.00634 5.14567
ltoes -4.51015
50
root 8.60426 15.571 -24.5012 8.35367 -6.57391 1.47067
lowerback -3.09476 2.61147 -4.88805
upperback -1.34436 3.61627 0.605868
thorax 0.00704249 1.83584 3.45848
lowerneck -17.9694 -5.32347 -13.8148
upperneck 14.8082 -6.8391 16.4812
head 8.6694 -2.46529 7.10119
rclavicle -2.28851e-014 -9.93923e-016
rhumerus -36.8295 17.3443 -88.0331
rradius 47.9615
rwrist -29.6129
rhand -33.7339 -29.2803
rfingers 7.12502
rthumb -6.92269 -59.1471
lclavicle -2.28851e-014 -9.93923e-016
lhumerus -52.6621 6.2366 77.9863
lradius 19.7677
lwrist -6.35809
lhand -8.21557 -23.8188
lfingers 7.12502
lthumb 17.7014 5.39551
rfemur 7.85867 -0.442708 14.2205
rtibia 45.212
rfoot 13.5442 -7.76032
rtoes -7.3621
lfemur -44.8848 9.40361 -25.9166
ltibia 45.048
lfoot -8.70377 5.0286
ltoes -4.50277
51
root 8.6311 15.6099 -24.3104 8.27855 -6.424 1.92347
lowerback -2.98092 2.52283 -5.21064
upperback -1.16955 3.50542 0.500793
thorax 0.120919 1.7746 3.52797
lowerneck -18.279 -5.38626 -14.1174
upperneck 14.7983 -6.8356 16.632
head 8.73939 -2.45474 7.21088
rclavicle -3.17062e-014 -5.1684e-015
rhumerus -37.0916 16.7261 -87.9026
rradius 47.2542
rwrist -28.8576
rhand -33.6242 -29.1715
rfingers 7.12502
rthumb -6.81676 -59.0417
lclavicle -3.17062e-014 -5.1684e-015
lhumerus -51.3891 5.95909 78.5897
lradius 19.8355
lwrist -5.73237
lhand -8.82144 -24.2639
lfingers 7.12502
lthumb 17.1183 5.00198
rfemur 5.94433 -0.905918 13.7572
rtibia 48.8042
rfoot 13.0022 -9.34623
rtoes -6.19029
lfemur -43.8474 9.45438 -26.557
ltibia 44.6725
lfoot -9.13581 4.80531
ltoes -5.09907
52
root 8.65909 15.6504 -24.1218 8.22926 -6.42493 2.23008
lowerback -2.77405 2.49111 -5.28755
upperback -1.13994 3.45475 0.279337
thorax 0.0499859 1.7498 3.33216
lowerneck -18.3065 -5.40971 -14.3392
upperneck 14.7375 -6.89735 17.1183
head 8.76626 -2.45178 7.42095
rclavicle -3.94091e-014 -4.37326e-015
rhumerus -37.4575 16.2947 -88.0757
rradius 46.5154
rwrist -28.5065
rhand -33.5572 -29.5643
rfingers 7.12502
rthumb -6.7521 -59.4366
lclavicle -3.94091e-014 -4.37326e-015
lhumerus -50.2819 5.63541 78.7647
lradius 19.8277
lwrist -5.33204
lhand -9.15899 -24.5318
lfingers 7.12502
lthumb 16.7934 4.76194
rfemur 4.00187 -1.20402 13.4743
rtibia 52.136
rfoot 11.8522 -10.2139
rtoes -7.75204
lfemur -42.8165 9.5159 -27.004
ltibia 44.3186
lfoot -9.40859 4.65477
ltoes -5.21147
53
root 8.68774 15.6972 -23.9313 8.1995 -6.44735 2.35992
lowerback -2.71707 2.35388 -5.26674
upperback -0.974432 3.27314 0.133652
thorax 0.216103 1.65039 3.17002
lowerneck -18.7425 -5.29972 -14.1269
upperneck 14.8194 -6.80019 17.3224
head 8.85837 -2.35488 7.47853
rclavicle -2.50966e-014 4.57205e-015
rhumerus -37.5854 15.9586 -88.3746
rradius 45.6679
rwrist -27.9727
rhand -33.6071 -28.635
rfingers 7.12502
rthumb -6.80028 -58.5058
lclavicle -2.50966e-014 4.57205e-015
lhumerus -48.9605 5.54891 78.8569
lradius 19.8482
lwrist -4.93009
lhand -9.40067 -24.2606
lfingers 7.12502
lthumb 16.5607 5.05276
rfemur 2.04645 -1.53927 13.3124
rtibia 55.1748
rfoot 10.6738 -10.4461
rtoes -8.57567
lfemur -41.7793 9.62543 -27.2454
ltibia 43.9664
lfoot -10.1004 4.44799
ltoes -4.68659
54
root 8.71242 15.7495 -23.7425 8.29775 -6.29303 2.22853
lowerback -2.98799 2.29277 -5.06472
upperback -0.398643 3.21726 0.226506
thorax 0.972173 1.591 3.182
lowerneck -20.6539 -5.56567 -13.7966
upperneck 15.4791 -6.99809 16.7624
head 9.42543 -2.39108 7.21072
rclavicle 3.56322e-014 2.18663e-014
rhumerus -37.074 15.2183 -87.9697
rradius 45.0193
rwrist -27.2153
rhand -33.2684 -27.2274
rfingers 7.12502
rthumb -6.47335 -57.1085
lclavicle 3.56322e-014 2.18663e-014
lhumerus -46.8231 4.93196 79.9251
lradius 20.1232
lwrist -4.22147
lhand -10.1967 -23.6026
lfingers 7.12502
lthumb 15.7942 5.77304
rfemur 0.00609385 -1.86819 13.5772
rtibia 57.9391
rfoot 9.24477 -10.5325
rtoes -9.05183
lfemur -40.8489 9.64496 -27.1741
ltibia 43.5661
lfoot -11.0711 4.1991
ltoes -3.33626
55
root 8.73588 15.7987 -23.5535 8.40099 -6.08576 2.11063
lowerback -2.99797 2.06751 -5.00644
upperback -0.694687 2.90628 0.384675
thorax 0.695897 1.44904 3.29643
lowerneck -19.8666 -5.26782 -13.5034
upperneck 15.6537 -6.68592 16.3118
head 9.25438 -2.30324 7.04109
rclavicle -2.18912e-014 1.41137e-014
rhumerus -38.3107 15.0121 -88.175
rradius 44.3883
rwrist -26.5003
rhand -32.3859 -25.5938
rfingers 7.12502
rthumb -5.62136 -55.4993
lclavicle -2.18912e-014 1.41137e-014
lhumerus -46.6309 4.42665 80.5612
lradius 20.6957
lwrist -3.63932
lhand -10.9365 -23.3669
lfingers 7.12502
lthumb 15.0817 6.06367
rfemur -1.98531 -1.84881 14.0683
rtibia 60.4438
rfoot 7.73845 -10.9923
rtoes -8.53477
lfemur -39.9137 9.52433 -27.0919
ltibia 43.1138
lfoot -11.7715 4.09024
ltoes -3.39368
56
root 8.75934 15.8406 -23.3623 8.27233 -5.92222 2.33219
lowerback -2.90042 1.96393 -5.19683
upperback -0.775755 2.76576 0.445897
thorax 0.558653 1.38416 3.45637
lowerneck -19.1595 -5.16667 -13.7756
upperneck 15.4598 -6.54953 16.4217
head 9.05029 -2.27708 7.14116
rclavicle -1.44616e-014 -1.63003e-014
rhumerus -38.992 14.6386 -88.107
rradius 43.3846
rwrist -25.9015
rhand -32.1951 -24.3238
rfingers 7.12502
rthumb -5.43707 -54.234
lclavicle -1.44616e-014 -1.63003e-014
lhumerus -45.8832 4.07357 81.1604
lradius 21.056
lwrist -3.28281
lhand -11.037 -23.0896
lfingers 7.12502
lthumb 14.9848 6.34819
rfemur -3.68886 -1.61018 14.194
rtibia 62.6996
rfoot 6.19499 -11.4151
rtoes -7.0968
lfemur -38.7031 9.28617 -27.3271
ltibia 42.5945
lfoot -12.2871 4.20328
ltoes -5.03139
57
root 8.78215 15.8829 -23.1734 8.17925 -5.74098 2.47475
lowerback -2.88881 1.90921 -5.19554
upperback -0.712715 2.69393 0.423687
thorax 0.625301 1.34507 3.43218
lowerneck -18.8927 -5.14733 -13.7499
upperneck 15.3687 -6.53075 16.325
head 8.96239 -2.28778 7.09878
rclavicle -4.00054e-015 1.66979e-014
rhumerus -39.3153 13.9665 -87.9864
rradius 42.5788
rwrist -25.2815
rhand -32.4041 -25.0302
rfingers 7.12502
rthumb -5.63891 -54.9351
lclavicle -4.00054e-015 1.66979e-014
lhumerus -44.7603 3.54758 81.676
lradius 21.3298
lwrist -2.95216
lhand -11.0326 -22.996
lfingers 7.12502
lthumb 14.9891 6.44152
rfemur -5.365 -1.41757 14.3638
rtibia 64.6944
rfoot 4.7196 -11.452
rtoes -6.79931
lfemur -37.4835 9.02454 -27.4677
ltibia 42.0075
lfoot -12.6456 4.36095
ltoes -5.29052
58
root 8.80439 15.9354 -22.9893 8.15966 -5.5099 2.46349
lowerback -2.8128 1.72817 -5.11845
upperback -0.658477 2.4473 0.439279
thorax 0.66524 1.21962 3.39746
lowerneck -19.1299 -5.04018 -13.3373
upperneck 15.6344 -6.42377 15.9606
head 9.04701 -2.23506 6.9164
rclavicle 7.65321e-015 5.56597e-015
rhumerus -39.5586 13.6022 -88.0216
rradius 41.7324
rwrist -24.5157
rhand -32.3355 -24.3118
rfingers 7.12502
rthumb -5.57271 -54.2185
lclavicle 7.65321e-015 5.56597e-015
lhumerus -43.5674 3.39104 81.854
lradius 21.3197
lwrist -2.76971
lhand -11.3055 -23.7214
lfingers 7.12502
lthumb 14.7262 5.73553
rfemur -7.10242 -1.42453 14.6901
rtibia 66.3894
rfoot 3.63019 -11.168
rtoes -7.87845
lfemur -36.2872 8.66962 -27.4382
ltibia 41.316
lfoot -12.7911 4.63926
ltoes -5.29791
